<svg width="576" height="448" viewBox="0 0 576 448" fill="none" xmlns="http://www.w3.org/2000/svg">
<path d="M39.7 6C29.3 -2.2 14.2 -0.3 6 10.1C-2.2 20.5 -0.299999 35.6 10.1 43.8L536.899 442.6C547.299 450.8 562.399 448.9 570.599 438.5C578.799 428.1 576.899 413 566.499 404.8L493.6 354.7C533.2 314.1 559.999 268.6 573.499 236.3C576.799 228.4 576.799 219.6 573.499 211.7C558.599 176 527.3 124 480.5 80.5999C433.5 36.7999 368.8 -1.52588e-05 288 -1.52588e-05C219.8 -1.52588e-05 163 26.3 118.7 60.8L39.7 6ZM191.1 117.5C216.6 94.2 250.7 79.9999 288 79.9999C367.5 79.9999 432 144.5 432 224C432 248.9 425.7 272.3 414.6 292.7L376 262.5C384.4 243.2 386.6 221.1 380.8 199.2C369.7 157.7 333 129.8 292.2 128.1C286.4 127.9 283 134.2 284.8 139.8C286.9 146.2 288.1 153 288.1 160.1C288.1 170.3 285.7 179.9 281.5 188.4L191.2 117.6L191.1 117.5ZM341 357.9C324.6 364.4 306.7 368 288 368C208.5 368 144 303.5 144 224C144 217.1 144.5 210.4 145.4 203.8L51.1 129.5C28.3 159.2 12 188.8 2.49999 211.7C-0.800006 219.6 -0.800006 228.4 2.49999 236.3C17.4 272 48.7 324 95.5 367.4C142.5 411.2 207.2 448 288 448C335.8 448 377.9 435.1 414.2 415.5L341 357.9Z" fill="#707048"/>
</svg>
