<?xml version="1.0" standalone="no"?>
<svg viewBox="0 0 200 200" xmlns="http://www.w3.org/2000/svg">
  <path fill="#F2F4F8" d="M29.3,-44.1C42.8,-43,62,-44.9,70,-38.1C78,-31.2,74.9,-15.6,68.7,-3.6C62.4,8.4,53,16.8,47.4,27.8C41.8,38.7,39.9,52.2,32.6,56.9C25.3,61.6,12.6,57.5,1.7,54.6C-9.2,51.6,-18.5,49.8,-30.9,48.1C-43.4,46.4,-59.1,44.8,-61.7,36.8C-64.3,28.8,-53.9,14.4,-55.4,-0.9C-56.9,-16.1,-70.3,-32.2,-68.9,-42.3C-67.5,-52.4,-51.2,-56.5,-37.3,-57.4C-23.3,-58.2,-11.7,-55.9,-1.9,-52.7C7.9,-49.4,15.8,-45.2,29.3,-44.1Z" transform="translate(100 100)" />
</svg>
